<svg version="1.1" id="Layer_1" xmlns="http://www.w3.org/2000/svg" xmlns:xlink="http://www.w3.org/1999/xlink" x="0px" y="0px"
	 width="50px" height="50px" viewBox="0 0 50 50" enable-background="new 0 0 50 50" xml:space="preserve">
<path fill="#0072C6" d="M10.125,17.098v27.695C10.125,47.668,16.561,50,24.5,50V17.098C24.5,17.098,10.125,17.098,10.125,17.098z"/>
<path fill="#0072C6" d="M24.303,49.999H24.5c7.939,0,14.375-2.33,14.375-5.206V17.098H24.303V49.999z"/>
<path opacity="0.15" fill="#FFFFFF" enable-background="new    " d="M24.303,49.999H24.5c7.939,0,14.375-2.33,14.375-5.206V17.098
	H24.303V49.999z"/>
<path fill="#FFFFFF" d="M38.875,17.098c0,2.875-6.436,5.206-14.375,5.206s-14.375-2.331-14.375-5.206s6.436-5.206,14.375-5.206
	S38.875,14.222,38.875,17.098"/>
<path fill="#7FBA00" d="M35.936,16.798c0,1.898-5.12,3.435-11.436,3.435s-11.437-1.537-11.437-3.435
	c0-1.897,5.121-3.435,11.437-3.435S35.936,14.9,35.936,16.798"/>
<path fill="#B8D432" d="M33.54,18.897c1.497-0.581,2.397-1.308,2.397-2.098c0-1.898-5.12-3.436-11.437-3.436
	c-6.316,0-11.436,1.538-11.436,3.436c0,0.79,0.9,1.517,2.397,2.098c2.091-0.811,5.358-1.335,9.039-1.335
	C28.182,17.562,31.448,18.086,33.54,18.897"/>
<path fill="#FFFFFF" d="M19.934,36.322c0,0.861-0.312,1.527-0.936,1.999c-0.624,0.472-1.486,0.709-2.587,0.709
	c-0.936,0-1.719-0.169-2.348-0.506v-2.025c0.726,0.616,1.525,0.924,2.397,0.924c0.422,0,0.748-0.084,0.978-0.253
	s0.345-0.392,0.345-0.671c0-0.274-0.11-0.512-0.332-0.715S16.78,35.321,16.101,35c-1.384-0.649-2.075-1.535-2.075-2.657
	c0-0.814,0.301-1.466,0.905-1.958c0.603-0.491,1.404-0.737,2.404-0.737c0.886,0,1.619,0.117,2.202,0.348v1.891
	c-0.611-0.422-1.308-0.633-2.088-0.633c-0.392,0-0.702,0.083-0.93,0.249c-0.228,0.167-0.341,0.39-0.341,0.667
	c0,0.287,0.091,0.522,0.275,0.706c0.183,0.183,0.56,0.41,1.129,0.68c0.848,0.401,1.452,0.808,1.813,1.221
	C19.754,35.192,19.934,35.707,19.934,36.322z"/>
<path fill="#FFFFFF" d="M29.695,34.273c0,1.067-0.243,1.993-0.728,2.777c-0.485,0.785-1.168,1.334-2.049,1.651l2.631,2.436h-2.657
	l-1.879-2.107c-0.805-0.029-1.532-0.242-2.18-0.639c-0.647-0.396-1.147-0.94-1.499-1.629c-0.352-0.689-0.528-1.459-0.528-2.306
	c0-0.94,0.191-1.779,0.572-2.515c0.382-0.736,0.918-1.302,1.61-1.699c0.692-0.396,1.484-0.594,2.379-0.594
	c0.834,0,1.582,0.192,2.243,0.576c0.66,0.383,1.172,0.93,1.537,1.638C29.513,32.571,29.695,33.375,29.695,34.273z M27.545,34.387
	c0-0.92-0.2-1.646-0.601-2.18c-0.401-0.534-0.949-0.801-1.645-0.801c-0.709,0-1.275,0.268-1.702,0.803
	c-0.426,0.536-0.639,1.249-0.639,2.138c0,0.886,0.209,1.593,0.626,2.122c0.418,0.529,0.972,0.794,1.664,0.794
	c0.705,0,1.263-0.256,1.677-0.768C27.338,35.984,27.545,35.281,27.545,34.387z"/>
<polygon fill="#FFFFFF" points="36.597,38.872 31.195,38.872 31.195,29.801 33.238,29.801 33.238,37.215 36.597,37.215 "/>
<g>
	<polygon fill="#7A7A7A" points="47.031,50 43.906,50 43.906,14.687 25,3.594 6.094,14.687 6.094,50 2.969,50 2.969,12.813 25,0
		47.031,12.813 	"/>
</g>
</svg>
